HIERARCHY
ROOT Hips
{
  OFFSET 0 0 0
  CHANNELS 6 Xposition Yposition Zposition Zrotation Xrotation Yrotation
  JOINT Spine
  {
    OFFSET 0 10 0
    CHANNELS 3 Zrotation Xrotation Yrotation
    JOINT Neck
    {
      OFFSET 0 30 0
      CHANNELS 3 Zrotation Xrotation Yrotation
      JOINT Head
      {
        OFFSET 0 8 0
        CHANNELS 3 Zrotation Xrotation Yrotation
        End Site
        {
          OFFSET 0 10 0
        }
      }
    }
    JOINT LeftArm
    {
      OFFSET 15 30 0
      CHANNELS 3 Zrotation Xrotation Yrotation
      JOINT LeftForeArm
      {
        OFFSET 25 0 0
        CHANNELS 3 Zrotation Xrotation Yrotation
        JOINT LeftHand
        {
          OFFSET 25 0 0
          CHANNELS 3 Zrotation Xrotation Yrotation
          End Site
          {
            OFFSET 10 0 0
          }
        }
      }
    }
    JOINT RightArm
    {
      OFFSET -15 30 0
      CHANNELS 3 Zrotation Xrotation Yrotation
      JOINT RightForeArm
      {
        OFFSET -25 0 0
        CHANNELS 3 Zrotation Xrotation Yrotation
        JOINT RightHand
        {
          OFFSET -25 0 0
          CHANNELS 3 Zrotation Xrotation Yrotation
          End Site
          {
            OFFSET -10 0 0
          }
        }
      }
    }
  }
  JOINT LeftUpLeg
  {
    OFFSET 10 -10 0
    CHANNELS 3 Zrotation Xrotation Yrotation
    JOINT LeftLeg
    {
      OFFSET 0 -35 0
      CHANNELS 3 Zrotation Xrotation Yrotation
      JOINT LeftToe
      {
        OFFSET 0 -40 0
        CHANNELS 3 Zrotation Xrotation Yrotation
        JOINT LeftToeEnd
        {
          OFFSET 0 0 0
          CHANNELS 3 Zrotation Xrotation Yrotation
          End Site
          {
            OFFSET 0 0 15
          }
        }
      }
    }
  }
  JOINT RightUpLeg
  {
    OFFSET -10 -10 0
    CHANNELS 3 Zrotation Xrotation Yrotation
    JOINT RightLeg
    {
      OFFSET 0 -35 0
      CHANNELS 3 Zrotation Xrotation Yrotation
      JOINT RightToe
      {
        OFFSET 0 -40 0
        CHANNELS 3 Zrotation Xrotation Yrotation
        JOINT RightToeEnd
        {
          OFFSET 0 0 0
          CHANNELS 3 Zrotation Xrotation Yrotation
          End Site
          {
            OFFSET 0 0 15
          }
        }
      }
    }
  }
}
MOTION
Frames:	13
Frame Time:	0.0333333
4.83686 108.596 4.13998 1.56439 -0.967855 -3.64059 1.38436 3.09881 2.55999 -14.2697 -26.9201 -6.92121 18.5357 22.5191 -12.6098 -32.8341 -22.6576 9.38108 3.65315e-015 -3.18055e-015 -50.995 39.6436 -4.37087 -53.1341 25.471 -19.6376 7.34932 1.16757e-015 3.18055e-015 49.684 -34.3133 24.0315 12.2794 0.735329 -5.49891 7.38519 1.48659e-015 33.1667 -1.89979e-015 -9.46492 -3.83737 22.7096 -0 -1.34e-005 -0 -1.64893 -9.07907 4.26709 2.19191e-016 39.7032 -1.29188e-016 8.14018 -4.90642 -30.9149 -1.59028e-015 -9.54166e-015 -0 
4.5844 115.228 3.33026 1.88622 -4.78698 -1.17273 -0.618195 14.6997 0.823144 -13.7838 -32.2493 -8.86906 18.6728 18.1586 -12.198 -36.7341 -38.3303 15.3454 4.94763e-015 3.18055e-015 -57.2653 37.0217 4.37227 -35.2657 33.3641 -28.8163 1.86571 -0 0 45.3439 -29.7378 23.0169 8.36202 1.20711 -3.18242 9.52214 1.98353e-015 34.4557 -3.85725e-015 -10.9549 9.75374 15.2811 -1.59028e-015 -1.34e-005 -0 -0.814053 -7.15071 2.6945 -2.36745e-016 43.2577 2.72951e-016 10.1855 3.45802 -27.5107 1.59028e-015 -3.18055e-015 -0 
4.56573 121.212 4.63921 2.71704 -3.42492 0.993602 -2.25205 12.067 -0.139389 -11.0225 -31.4044 -7.95245 16.6044 23.5275 -12.2418 -41.1223 -40.2554 17.0121 5.59676e-015 0 -55.3693 27.6714 -5.37622 -17.4388 39.3827 -29.9653 -4.6116 -1.60046e-014 0 37.3534 -22.594 17.7538 4.25496 -1.0926 -5.5801 5.1334 3.97569e-016 33.9785 -0 -9.44916 5.03292 14.1187 -0 -1.34e-005 -0 -0.216421 -8.96749 4.34957 -1.90034e-015 43.3794 2.18799e-015 9.77889 3.42676 -26.6764 4.77083e-015 0 -3.18055e-015 
4.75585 126.164 6.04906 2.77263 -1.01658 1.76985 -2.60171 7.12327 -0.122853 -10.354 -28.9994 -6.97753 16.6209 24.444 -11.6066 -45.9855 -37.7605 16.7483 -6.86918e-015 -6.36111e-015 -47.1992 23.1836 -10.9728 -9.05984 46.0542 -30.5746 -10.06 -2.79195e-015 0 31.3077 -18.3984 18.6382 2.73497 -1.50196 -8.64859 4.97298 1.98544e-015 33.65 -2.86558e-015 -9.00865 0.230553 16.3721 -3.18056e-015 -1.34e-005 -3.18055e-015 0.737794 -12.0977 7.85603 1.82745e-015 41.9599 -2.13858e-015 8.32887 0.31756 -24.9485 1.59028e-015 6.36111e-015 -0 
4.89079 130.017 6.13799 1.44207 -1.63648 2.95643 0.255844 10.649 -1.16719 -11.2843 -31.1294 -7.72823 15.8323 23.8149 -11.0881 -55.234 -36.188 13.0594 -1.26488e-014 -3.18055e-015 -38.3216 19.9789 -4.52944 -4.75751 54.0565 -31.8272 -9.51388 5.18149e-015 -3.18055e-015 26.9143 -15.5862 15.4337 1.89403 0.573736 -9.6128 5.80569 -3.97569e-016 34.6813 -0 -9.34111 1.11652 16.7024 7.43849e-022 -1.34e-005 3.18055e-015 2.46892 -12.8469 9.60029 1.56584e-015 40.9356 -4.21017e-015 6.79927 -2.75347 -22.8354 1.59028e-015 0 -0 
4.91472 132.71 6.19143 1.74088 -2.72185 3.93644 -0.135397 14.4183 -2.00791 -11.3907 -33.3224 -8.62417 16.7726 24.8686 -11.6935 -63.2378 -32.6137 9.32725 6.47099e-015 -3.18055e-015 -33.2003 17.6306 -2.8327 -3.36613 63.6823 -31.2426 -6.24736 -4.28679e-015 3.18055e-015 22.0025 -12.8936 15.5736 1.18502 0.547764 -9.51027 4.31262 3.97569e-016 34.6034 -0 -9.28771 3.33031 14.4884 -0 -1.34e-005 -0 1.98873 -13.4758 10.6747 -7.95139e-016 41.4384 -0 5.44075 -3.66451 -18.3478 4.41391e-032 -3.18055e-015 7.95139e-016 
4.97137 134.297 6.62133 2.17133 -2.70622 3.93591 -1.30212 14.7033 -2.08869 -10.3872 -33.0728 -8.741 15.8098 26.025 -12.2656 -69.2313 -29.8683 6.8371 -6.42773e-015 -3.18055e-015 -30.0058 16.292 -0.106033 -2.67597 71.5858 -29.5276 -3.89699 -2.91281e-015 3.18055e-015 17.9758 -10.9361 21.471 0.427979 0.243516 -10.1551 3.07629 1.40949e-016 34.1083 -9.60337e-016 -8.70394 4.03494 12.0181 1.59028e-015 -1.34e-005 -6.36111e-015 0.948441 -15.0674 11.0824 3.04486e-015 42.4482 -2.15518e-015 4.51765 -4.83687 -16.2756 -7.95139e-016 3.18055e-015 -0 
5.1468 134.784 7.04668 2.45732 -3.00451 3.98213 -1.97656 15.0471 -1.88536 -10.3734 -33.8002 -8.87207 16.0432 28.1914 -12.8025 -73.3973 -26.0968 4.19296 4.47053e-015 0 -27.2132 14.9861 0.498883 -2.2255 77.5398 -26.7559 -2.78437 3.88937e-015 -3.18055e-015 15.7171 -9.80725 23.6222 0.000740288 0.0326389 -10.2227 2.14869 -5.32701e-016 33.82 9.57087e-016 -7.71967 3.09584 9.59771 -1.59028e-015 -1.34e-005 -3.18055e-015 -0.308006 -15.7746 10.6109 2.29678e-015 43.3579 -2.18721e-015 4.05664 -6.07782 -16.2142 -1.98785e-016 3.18055e-015 3.97569e-016 
5.34688 134.198 7.45952 2.51221 -3.66883 4.30183 -1.85512 15.5788 -1.9107 -10.1924 -34.2238 -8.88125 15.5529 28.7901 -12.7323 -76.5222 -22.2457 1.71191 1.53607e-015 3.18055e-015 -25.7786 14.3996 2.88478 -1.98384 80.7557 -21.9096 -2.39722 -3.97977e-015 3.18055e-015 14.5048 -9.29851 23.3782 -0.0961007 0.243841 -9.84967 1.72973 1.98785e-016 33.6561 -0 -7.46392 3.65414 8.44785 -1.59028e-015 -1.34e-005 -3.18055e-015 -1.02789 -15.8985 10.929 0 43.682 -0 3.98561 -6.58835 -16.7659 -1.98785e-016 -3.18055e-015 7.95139e-016 
5.53928 132.542 7.94694 2.50314 -4.17701 4.86153 -1.54217 15.6637 -2.41666 -10.4399 -34.7764 -9.04723 15.9532 29.8966 -12.7692 -77.6673 -17.4815 0.406657 1.33088e-015 -6.36111e-015 -25.8994 14.5394 3.65275 -2.01957 82.305 -16.2723 -2.45306 8.00017e-016 3.18055e-015 13.8987 -9.10968 23.1698 -0.103877 0.561563 -9.60379 1.40486 -1.98785e-016 33.3891 -0 -7.59796 5.11209 7.9781 2.38542e-015 -1.34e-005 -1.59028e-015 -1.53649 -15.961 11.4043 1.52896e-015 43.8738 -2.20606e-015 3.70096 -7.35305 -16.4708 -6.95746e-016 -6.36111e-015 -0 
5.73116 129.816 8.47158 1.95111 -4.54004 5.4093 -0.391396 15.2013 -3.22775 -10.4112 -34.5594 -9.24403 15.1306 29.7508 -12.6873 -77.3722 -12.496 -0.265474 -5.35067e-015 0 -26.9208 15.111 2.8159 -2.20361 82.431 -10.108 -2.90223 -1.41035e-015 0 14.3011 -9.48229 21.2467 0.170342 1.28394 -9.76269 0.591578 -1.51644e-015 33.3107 9.51459e-016 -7.5229 5.23571 7.51606 -1.59028e-015 -1.34e-005 -3.18055e-015 -1.3465 -16.1727 12.0907 -7.95139e-016 43.4246 -0 3.75489 -7.24848 -16.1277 1.44119e-015 -1.59028e-015 1.49089e-016 
5.92591 126.001 9.027 1.69688 -4.91997 5.65137 0.00899376 14.8167 -3.57109 -10.2669 -34.9729 -9.28956 14.7363 30.2324 -12.6516 -75.6121 -8.27293 -1.20798 1.31025e-015 1.59028e-015 -28.3608 15.8538 2.54461 -2.4575 81.8748 -2.5819 -4.04659 3.39644e-015 1.98785e-016 16.1866 -10.5593 17.4932 0.527743 1.73512 -9.6318 0.325971 -5.96354e-016 32.9235 -0 -7.22911 3.93124 6.92268 -7.95139e-016 -1.34e-005 -0 -1.42651 -16.4261 12.6743 0 43.4082 -0 3.80052 -6.89831 -15.7384 -2.48481e-016 -3.18055e-015 -9.93923e-017 
6.17761 121.124 9.57397 1.00163 -5.21241 5.8288 1.60751 14.02 -3.80763 -11.3673 -35.2529 -9.62789 14.9851 31.0761 -12.9202 -73.3007 -3.17408 -1.79627 -6.46918e-015 7.95139e-016 -30.808 17.1105 2.22568 -2.94239 79.8499 4.96437 -6.28644 2.54567e-015 0 20.4383 -13.0697 16.5166 1.21482 2.65784 -9.52332 0.505461 -2.85561e-016 32.6545 -9.44413e-016 -7.41332 1.75244 7.95172 7.95139e-016 -1.34e-005 3.18055e-015 -1.32412 -16.9612 12.1282 0 43.6425 -0 3.94503 -5.89593 -15.4981 4.22417e-016 1.59028e-015 -3.97569e-016 
